# xmcd CD database file
#
# Track frame offsets:
#	150
#	9329
#	19778
#	31156
#	41250
#	50490
#	60548
#	70211
#	79300
#	87925
#	98805
#	108874
#	117172
#	127552
#	137902
#	147514
#	157193
#	167391
#	177739
#	187210
#	197877
#	207919
#	219757
#	228807
#	239787
#	249714
#	259952
#	272565
#	283647
#
# Disc length: 3924 seconds
#
# Revision: 1
# Processed by: cddbd v1.5.2PL0 Copyright (c) Steve Scherf et al.
# Submitted via: CDex 1.51
#
DISCID=a00f521d
DTITLE=Melvin Endsley - I Like Your Kind Of Love
DYEAR=1992
DGENRE=Country
TTITLE0=I Like Your Kind Of Love
TTITLE1=I Ain't Gettin' Nowhere With You
TTITLE2=Is It True
TTITLE3=Keep A-Lovin' Me Baby
TTITLE4=I Got A Feelin'
TTITLE5=Hungry Eyes
TTITLE6=Lovin' On My Mind
TTITLE7=Getting Used To The Blues
TTITLE8=Let's Fall Out Of Love
TTITLE9=I'd Just Be Fool Enough
TTITLE10=Just Wanted To Be Wanted
TTITLE11=Gettin' Used To The Blues
TTITLE12=There's Bound To Be
TTITLE13=Lonely All Over Again
TTITLE14=Bringin' The Blues To My Door
TTITLE15=Ain't It Fine!
TTITLE16=Oh, Yeah Baby
TTITLE17=Let Me Sing The Blues (Just One More Time)
TTITLE18=I'll Get Even With You
TTITLE19=I Can't Go Anywhere
TTITLE20=Can I Say Something
TTITLE21=The Search
TTITLE22=Here I Am
TTITLE23=You Make It Sound So Easy
TTITLE24=For My Baby
TTITLE25=I Wish I Knew
TTITLE26=How Lonely Can You Get
TTITLE27=Everytime I See The Sun Go Down
TTITLE28=Started Out A-Walkin'
EXTD=YEAR: 1992
EXTT0=
EXTT1=
EXTT2=
EXTT3=
EXTT4=
EXTT5=
EXTT6=
EXTT7=
EXTT8=
EXTT9=
EXTT10=
EXTT11=
EXTT12=
EXTT13=
EXTT14=
EXTT15=
EXTT16=
EXTT17=
EXTT18=
EXTT19=
EXTT20=
EXTT21=
EXTT22=
EXTT23=
EXTT24=
EXTT25=
EXTT26=
EXTT27=
EXTT28=
PLAYORDER=
